<svg xmlns="http://www.w3.org/2000/svg" xmlns:xlink="http://www.w3.org/1999/xlink" xml:space="preserve" version="1.1" style="shape-rendering:geometricPrecision;text-rendering:geometricPrecision;image-rendering:optimizeQuality;" viewBox="0 0 325 316.25" x="0px" y="0px" fill-rule="evenodd" clip-rule="evenodd"><defs><style type="text/css">
   
    .fil2 {fill:black}
    .fil0 {fill:black;fill-rule:nonzero}
    .fil1 {fill:black;fill-rule:nonzero}
   
  </style></defs><g><path class="fil0" d="M198 137c18,0 32,4 45,17 23,22 23,59 0,82 -10,10 -25,17 -41,17l-144 0c-16,0 -31,-7 -41,-17 -21,-21 -23,-53 -5,-76 6,-8 14,-14 23,-18 -3,-24 6,-45 23,-61 32,-29 84,-29 116,0 16,14 25,35 24,56zm-15 14c3,-24 2,-42 -18,-60 -27,-25 -71,-25 -97,0 -20,17 -23,37 -18,60 -12,4 -20,7 -27,17 -14,18 -11,43 4,58 8,8 19,13 31,13l144 0c13,0 24,-5 32,-13 17,-17 17,-46 -1,-63 -15,-14 -32,-12 -50,-12z"/><path class="fil1" d="M275 176l20 20 -9 10 -20 -20c3,-3 6,-7 9,-10z"/><path class="fil1" d="M297 111l28 0 0 13 -28 0c0,-4 0,-9 0,-13z"/><path class="fil1" d="M266 50l21 -20 9 9 -20 21c-3,-4 -6,-7 -10,-10z"/><path class="fil1" d="M200 28l0 -28 14 0 0 28c-4,0 -9,0 -14,0z"/><path class="fil1" d="M139 59l-20 -20 10 -9 20 19c-4,3 -7,7 -10,10z"/><path class="fil2" d="M207 42c42,0 76,34 76,76 0,24 -12,45 -29,59 -2,-4 -4,-8 -6,-11 13,-12 22,-29 22,-48 0,-35 -28,-63 -63,-63 -18,0 -35,8 -47,21 -3,-2 -7,-4 -11,-6 14,-17 35,-28 58,-28z"/></g><text x="0" y="268" fill="#000000" font-size="5px" font-weight="bold" font-family="'Helvetica Neue', Helvetica, Arial-Unicode, Arial, Sans-serif">Created by sandiindra</text><text x="0" y="273" fill="#000000" font-size="5px" font-weight="bold" font-family="'Helvetica Neue', Helvetica, Arial-Unicode, Arial, Sans-serif">from the Noun Project</text></svg>