<svg xmlns="http://www.w3.org/2000/svg" xmlns:xlink="http://www.w3.org/1999/xlink" version="1.1" x="0px" y="0px" viewBox="0 0 48 60" enable-background="new 0 0 48 48" xml:space="preserve"><g><g><path d="M24,20c2.757,0,5-2.243,5-5c0-2.757-2.243-5-5-5s-5,2.243-5,5C19,17.757,21.243,20,24,20z M24,12c1.654,0,3,1.346,3,3    c0,1.654-1.346,3-3,3s-3-1.346-3-3C21,13.346,22.346,12,24,12z"/><path d="M31.791,30.539C34.339,26.417,37,20.741,37,15c0-7.168-5.832-13-13-13S11,7.832,11,15c0,5.742,2.662,11.419,5.209,15.539    C8.132,31.704,3,34.567,3,38c0,5.196,10.819,8,21,8s21-2.804,21-8C45,34.566,39.868,31.703,31.791,30.539z M24,4    c6.065,0,11,4.935,11,11c0,5.894-3.118,11.833-5.735,15.779c-2.079,3.15-4.197,5.595-5.265,6.763    c-1.067-1.167-3.187-3.613-5.267-6.765C16.118,26.833,13,20.894,13,15C13,8.935,17.935,4,24,4z M24,44c-11.197,0-19-3.162-19-6    c0-1.998,4.354-4.598,12.415-5.6c2.929,4.328,5.753,7.182,5.877,7.306C23.479,39.894,23.734,40,24,40s0.521-0.106,0.708-0.294    c0.124-0.124,2.949-2.979,5.876-7.306C38.646,33.402,43,36.002,43,38C43,40.838,35.197,44,24,44z"/></g></g><text x="0" y="63" fill="#000000" font-size="5px" font-weight="bold" font-family="'Helvetica Neue', Helvetica, Arial-Unicode, Arial, Sans-serif">Created by Binpodo</text><text x="0" y="68" fill="#000000" font-size="5px" font-weight="bold" font-family="'Helvetica Neue', Helvetica, Arial-Unicode, Arial, Sans-serif">from the Noun Project</text></svg>